<svg class="svg-company-logo" xmlns="http://www.w3.org/2000/svg" viewBox="0 0 454.46 115.78">
  <g>
    <polygon fill="currentColor" points="55.81 56.28 26.47 2.92 0 2.92 0 114.52 24.08 114.52 24.08 51.39 55.18 98.59 55.81 98.59 87.22 50.92 87.22 114.52 111.61 114.52 111.61 2.92 85.15 2.92 55.81 56.28"></polygon>
    <path fill="currentColor" d="M255.56,41.34c0,9.4-6.84,15.79-18.81,15.79H211.88V25.07h24.39c12,0,19.29,5.43,19.29,15.95ZM401.62,92.67V69.23h44.85V47.4H401.62V24.75h52.84V2.91H377.23V47.4H332.37V69.23H358.7V83.64a35.54,35.54,0,0,1-20.39,9.12c-19,2.28-34.05-12-36.33-31l0-.32c-2.3-19,9.29-36.14,28-38.39,11.07-1.33,20.35,2.36,29.84,9.09L373.1,12.44C361.59,3.55,348.25-1.9,327.36.61c-22.89,2.77-39.69,16.63-47.1,35-.78-8.69-4-16-9.38-21.36C263.55,6.9,252.53,2.91,238.35,2.91h-51V24.75H136V47.4h43.49V69.23H136V92.67h51.34v21.85h24.54V78.81h19.29l23.91,35.71h28.7L256.52,74.67c8.5-3.16,15.37-8.5,19.52-16.13.05,2.09.19,4.21.44,6.32l0,.32c3.82,31.82,31.08,54.08,63.69,50.14,17.22-2.08,28.2-8.41,37-17.89v17.08h77.23V92.67Z"></path>
  </g>
</svg>