<?xml version="1.0" encoding="UTF-8" standalone="no"?>
<svg width="86px" height="67px" viewBox="0 0 86 67" version="1.1" xmlns="http://www.w3.org/2000/svg" xmlns:xlink="http://www.w3.org/1999/xlink" xmlns:sketch="http://www.bohemiancoding.com/sketch/ns">
    <!-- Generator: Sketch 3.3.3 (12081) - http://www.bohemiancoding.com/sketch -->
    <title>Laptop</title>
    <desc>Created with Sketch.</desc>
    <defs></defs>
    <g id="Page-1" stroke="none" stroke-width="1" fill="none" fill-rule="evenodd" sketch:type="MSPage">
        <g id="Laptop" sketch:type="MSLayerGroup" transform="translate(-5.000000, -14.000000)">
            <rect id="Container" sketch:type="MSShapeGroup" x="0" y="0.951038959" width="96" height="96"></rect>
            <g id="Shape" transform="translate(7.000000, 16.000000)" stroke-width="4" stroke="#FFFFFF" stroke-linecap="round" sketch:type="MSShapeGroup" stroke-linejoin="round">
                <path d="M67.9204,36.2775 C68.1108,34.1858 69.9936,3.5723 68.6706,2.1995 C67.3478,0.8268 17.1628,0.4981 15.9274,1.6316 C14.6918,2.765 15.9311,34.7835 16.2121,36.3113 C15.0869,37.9441 -0.2464,60.1107 0.2536,61.1107 C0.7536,62.1107 80.9203,62.7774 81.9203,61.7774 C82.9203,60.7774 69.063,37.7024 67.9204,36.2775 L67.9204,36.2775 Z"></path>
                <path d="M22.803,7.5393 C21.8904,8.2804 22.2117,28.4471 23.0134,29.1738 C23.8151,29.9005 60.2934,30.2166 61.2004,29.5384 C62.1071,28.8602 62.75,8.8081 61.7724,7.9106 C60.7952,7.0132 23.7158,6.7982 22.803,7.5393 L22.803,7.5393 Z"></path>
                <path d="M16.7537,36.5073716 C19.587,35.6738716 64.8965,36.9653716 67.9204,36.5073716"></path>
                <path d="M19.5869,42.3607 L25.8813,42.3607"></path>
                <path d="M32.595,42.5275 L38.8892,42.5275"></path>
                <path d="M45.1836,42.5275 L51.4778,42.5275"></path>
                <path d="M57.7927,42.3607 L64.0869,42.3607"></path>
                <path d="M21.0181,49.2498 L29.3653,49.2498"></path>
                <path d="M37.7124,49.2498 L46.0593,49.2498"></path>
                <path d="M54.4343,49.0831 L62.7812,49.0831"></path>
                <path d="M11.8159,55.4441 L20.1758,55.4441"></path>
                <path d="M29.093,55.6107 L37.4529,55.6107"></path>
                <path d="M45.8127,55.6107 L54.1728,55.6107"></path>
                <path d="M62.5605,55.4441 L70.9204,55.4441"></path>
            </g>
        </g>
    </g>
</svg>