<?xml version="1.0" encoding="utf-8"?>
<!-- Generator: Adobe Illustrator 19.2.0, SVG Export Plug-In . SVG Version: 6.00 Build 0)  -->
<svg version="1.1" id="Layer_1" xmlns="http://www.w3.org/2000/svg" xmlns:xlink="http://www.w3.org/1999/xlink" x="0px" y="0px"
	 viewBox="0 0 612 792" style="enable-background:new 0 0 612 792;" xml:space="preserve">
<style type="text/css">
	
		.st0{fill:none;stroke:#8A8A8E;stroke-width:2;stroke-linecap:round;stroke-linejoin:round;stroke-miterlimit:10;stroke-dasharray:0.1,4;}
	.st1{fill:none;stroke:#FFFFFF;stroke-miterlimit:10;}
</style>
<g>
	<path class="st0" d="M267.7,374.9v50.3c0,0.5,0.2,0.9,0.5,0.9h39.7"/>
	<path class="st0" d="M274,369.3v50.3c0,0.5,0.2,0.9,0.5,0.9h38.8"/>
</g>
<g>
	<polygon class="st1" points="337.1,424 317.3,424 320.1,412.8 334.8,412.8 	"/>
	<path class="st1" d="M362.3,412.8h-69.7c-0.6,0-1-0.4-1-1v-49.2c0-0.6,0.4-1,1-1h69.7c0.6,0,1,0.4,1,1v49.2
		C363.3,412.4,362.8,412.8,362.3,412.8z"/>
	
		<rect x="309.9" y="351.5" transform="matrix(-1.836970e-016 1 -1 -1.836970e-016 710.6512 55.8199)" class="st1" width="35.1" height="63.5"/>
	<line class="st1" x1="312.6" y1="424" x2="341.8" y2="424"/>
	<line class="st1" x1="291.6" y1="404.9" x2="363.3" y2="404.9"/>
</g>
<g>
	<path class="st1" d="M378.2,402.9V373c0-0.6,0.4-1,1-1h16.8c0.6,0,1,0.4,1,1v29.8c0,0.6-0.4,1-1,1h-16.8
		C378.7,403.9,378.2,403.4,378.2,402.9z"/>
	
		<rect x="380.2" y="376" transform="matrix(-1 4.854860e-011 -4.854860e-011 -1 775.3071 774.2562)" class="st1" width="14.9" height="22.3"/>
	<line class="st1" x1="386.4" y1="374" x2="388.9" y2="374"/>
	<circle class="st1" cx="387.7" cy="401.2" r="1.2"/>
</g>
<g>
	<path class="st0" d="M417.3,400.5v-50.3c0-0.5-0.2-0.9-0.5-0.9h-39.7"/>
	<path class="st0" d="M411,406.2v-50.3c0-0.5-0.2-0.9-0.5-0.9h-38.8"/>
</g>
</svg>
