<svg id="Layer_1" data-name="Layer 1" xmlns="http://www.w3.org/2000/svg" viewBox="0 0 148.68 64.1"><defs><style>.cls-1,.cls-2{fill:none;}.cls-1{stroke:#8a8a8e;stroke-linecap:round;stroke-linejoin:round;stroke-width:2px;stroke-dasharray:0.1 4;}.cls-2{stroke:#fff;stroke-miterlimit:10;}</style></defs><title>st-main</title><path class="cls-1" d="M270.65,372.95v50.31a0.81,0.81,0,0,0,.51.92h39.67" transform="translate(-269.65 -361.08)"/><path class="cls-1" d="M274,369.26v50.31a0.82,0.82,0,0,0,.5.92h38.83" transform="translate(-269.65 -361.08)"/><polygon class="cls-2" points="67.4 62.95 47.66 62.95 50.43 51.73 65.1 51.73 67.4 62.95"/><rect class="cls-2" x="21.9" y="0.5" width="71.72" height="51.23" rx="1" ry="1"/><rect class="cls-2" x="309.86" y="351.47" width="35.11" height="63.52" transform="translate(441 -305.26) rotate(90)"/><line class="cls-2" x1="42.93" y1="62.95" x2="72.13" y2="62.95"/><line class="cls-2" x1="21.9" y1="43.86" x2="93.62" y2="43.86"/><rect class="cls-2" x="371.74" y="378.56" width="31.83" height="18.81" rx="1" ry="1" transform="translate(505.97 -360.77) rotate(90)"/><rect class="cls-2" x="380.18" y="375.96" width="14.95" height="22.33" transform="translate(505.66 413.18) rotate(180)"/><line class="cls-2" x1="116.78" y1="12.96" x2="119.22" y2="12.96"/><circle class="cls-2" cx="118" cy="40.09" r="1.22"/><path class="cls-1" d="M417.33,372.95v50.17a0.94,0.94,0,0,1-1,.92H341.67" transform="translate(-269.65 -361.08)"/><path class="cls-1" d="M413.83,369.26v50.31a0.94,0.94,0,0,1-.95.92H339" transform="translate(-269.65 -361.08)"/></svg>