<?xml version="1.0" encoding="UTF-8" standalone="no"?>
<svg width="83px" height="66px" viewBox="0 0 83 66" version="1.1" xmlns="http://www.w3.org/2000/svg" xmlns:xlink="http://www.w3.org/1999/xlink" xmlns:sketch="http://www.bohemiancoding.com/sketch/ns">
    <!-- Generator: Sketch 3.3.3 (12081) - http://www.bohemiancoding.com/sketch -->
    <title>Tablet</title>
    <desc>Created with Sketch.</desc>
    <defs></defs>
    <g id="Page-1" stroke="none" stroke-width="1" fill="none" fill-rule="evenodd" sketch:type="MSPage">
        <g id="Tablet" sketch:type="MSLayerGroup" transform="translate(-6.000000, -15.000000)">
            <rect id="Container" sketch:type="MSShapeGroup" x="0" y="0.951038959" width="96" height="96"></rect>
            <g id="Shape" transform="translate(8.000000, 17.000000)" stroke-width="4" stroke="#FFFFFF" stroke-linecap="round" sketch:type="MSShapeGroup" stroke-linejoin="round">
                <path d="M41.9209,15.9075 C24.8707,18.4923 3.1078,22.3833 1.1899,23.5629 C-0.8791,24.8354 10.7065,58.893 12.9963,60.9772 C15.286,63.0614 76.7783,49.8542 77.9873,48.3136 C79.1963,46.773 63.9707,14.8135 62.4302,13.6045 C62.1377,13.3749 59.8618,13.5219 56.3448,13.9237"></path>
                <path d="M38.6,23.9138 C28.4921,25.5099 17.1824,27.5781 16.0891,28.2505 C14.7833,29.0536 22.0953,50.5485 23.5405,51.8639 C24.9856,53.1793 63.7953,44.8438 64.5583,43.8715 C65.3213,42.8992 55.712,22.7286 54.7397,21.9655 C54.5709,21.8331 53.356,21.8992 51.4527,22.1053"></path>
                <path d="M10.2883,35.3826 L10.7428,36.797"></path>
                <path d="M12.6655,43.5283 L13.12,44.9427"></path>
                <path d="M36.7477,36.9333 C37.9634,37.7376 44.6505,32.0297 46.0708,29.8831 C47.4911,27.7365 61.7516,5.5229 60.8319,4.4485 C59.9122,3.3741 54.6219,0.4563 52.5893,0.8001 C50.5566,1.144 38.4814,24.2795 37.6176,25.717 C36.7538,27.1545 34.6011,35.5131 36.7477,36.9333 L36.7477,36.9333 Z"></path>
                <path d="M37.6177,25.717 L46.0708,29.8832"></path>
            </g>
        </g>
    </g>
</svg>